PathFileType	4	(X/Y/Z)	/Users/visionmauri/2_8_1_f_Sports2D/2_8_1_f_Sports2D_m_person00.trc
DataRate	CameraRate	NumFrames	NumMarkers	Units	OrigDataRate	OrigDataStartFrame	OrigNumFrames
30.0	30.0	6	22	m	30.0	262	350
Frame#	Time	Hip			RHip			RKnee			RAnkle			RBigToe			RSmallToe			RHeel			LHip			LKnee			LAnkle			LBigToe			LSmallToe			LHeel			Neck			Head			Nose			RShoulder			RElbow			RWrist			LShoulder			LElbow			LWrist			
		X1	Y1	Z1	X2	Y2	Z2	X3	Y3	Z3	X4	Y4	Z4	X5	Y5	Z5	X6	Y6	Z6	X7	Y7	Z7	X8	Y8	Z8	X9	Y9	Z9	X10	Y10	Z10	X11	Y11	Z11	X12	Y12	Z12	X13	Y13	Z13	X14	Y14	Z14	X15	Y15	Z15	X16	Y16	Z16	X17	Y17	Z17	X18	Y18	Z18	X19	Y19	Z19	X20	Y20	Z20	X21	Y21	Z21	X22	Y22	Z22
262	8.758357211079273	0.623762035528233	0.8025394686987037	0.0301	0.5425173334715194	0.7449577372117113	0.0301	0.6344029213906393	0.3791272692287832	0.129	0.7615301898192283	0.18819100143643377	0.023	0.8081560974250684	0.033134143492662714	0.2179	0.7491547161728456	0.041190402603748066	0.1804	0.7947785650791737	0.17818643404809148	-0.0119	0.7157046088372704	0.8039886469634626	0.0301	0.8283619835401278	0.4865972905591244	0.129	0.951569198249879	0.14061477851361578	0.023	0.986746911536912	-0.001151794534717218	0.2179	1.0345710615659485	0.029193783743694142	0.1804	0.9384019149127004	0.0906642543727277	-0.0119	0.47022118949539976	1.3263827351729778	0.0008	0.43851036833019974	1.5638903590982411	0.0655	0.5039704881126494	1.3966645994973657	0.1076	0.30344833431831386	1.216478273728366	-0.01275	0.2985493482730381	0.9485061157509473	0.0702	0.3070082035181246	0.7382896012316609	0.1076	0.6517266878398064	1.3237751180141062	-0.01275	0.7815436496383654	1.1057472732706406	0.0702	0.89376942845109	0.9401733550031129	0.1076
263	8.79178605539637	0.6227304982111734	0.8036931161335916	0.0301	0.5397498308663222	0.7492919833740609	0.0301	0.6291241211813757	0.3744235929336238	0.129	0.763417605188059	0.18897506541893438	0.023	0.8052221381062236	0.027767162100418852	0.2179	0.7485513328366744	0.03918554599171533	0.1804	0.7966960085765884	0.18035765678829588	-0.0119	0.7139789411448363	0.8085133504940304	0.0301	0.8296157824772485	0.48415959892759497	0.129	0.9511785788429522	0.14371837481948857	0.023	0.9895430048754862	-0.005569092048711802	0.2179	1.0398032178824923	0.022884886829546064	0.1804	0.9374120981534125	0.08913775770806111	-0.0119	0.46973248835940407	1.3290556329686647	0.0008	0.4369741117264729	1.5695672109145924	0.0655	0.5041240008537584	1.3981130214611508	0.1076	0.30224063392711265	1.2204841333410879	-0.01275	0.2976611864078912	0.9523533602298514	0.0702	0.30687878824395587	0.7381597292536332	0.1076	0.6501433710504028	1.3257464527800655	-0.01275	0.7807409381153803	1.1115423787871848	0.0702	0.8948643594846851	0.9433630281385197	0.1076
264	8.825214899713467	0.6204651423365392	0.8051507221345952	0.0301	0.53683474964755	0.7540186235760322	0.0301	0.6248397044469205	0.3741188855566502	0.129	0.7680407972042391	0.18364188712928295	0.023	0.8016725729163764	0.0181221915394668	0.2179	0.7479010510905366	0.031719716297167834	0.1804	0.8020872580788412	0.17111613019843863	-0.0119	0.713809262841115	0.8143159750178929	0.0301	0.8329700341552173	0.47962304872029826	0.129	0.9514051842239498	0.14291682444500803	0.023	0.9937599343636431	-0.012124026145047807	0.2179	1.0455226432635891	0.018814491972796436	0.1804	0.9374049590675337	0.08766655158266716	-0.0119	0.4676136151377453	1.3312590990520423	0.0008	0.4352899742275845	1.5764501377721283	0.0655	0.5025294205238686	1.398949347036682	0.1076	0.30035341679054856	1.2241899388417472	-0.01275	0.2961519826753241	0.9551263744881772	0.0702	0.3058482802383611	0.7381061860917093	0.1076	0.64775099348471	1.3277314885144536	-0.01275	0.7793447390181293	1.1172925834048728	0.0702	0.8960498602869986	0.9459650500581719	0.1076
265	8.858643744030564	0.6171206885985256	0.8061377847025335	0.0301	0.5333894443426787	0.7557407458209132	0.0301	0.624077299462665	0.37572460714479977	0.129	0.7746598207959444	0.16850324647125042	0.023	0.8011431628691169	0.0030435849236552038	0.2179	0.7483302723854843	0.016255815349534828	0.1804	0.81211883666688	0.14922972947083718	-0.0119	0.7147139670099854	0.8176449687112887	0.0301	0.8374333682906779	0.4744020233894184	0.129	0.9511354318228805	0.13977323198384692	0.023	0.9970440657099601	-0.017753078770214207	0.2179	1.0480769252720306	0.018266523071119194	0.1804	0.9378496729561636	0.08546484381362066	-0.0119	0.46471713881536103	1.3351828299763446	0.0008	0.4332770740594095	1.5807436500921954	0.0655	0.4994779932744182	1.402264936539588	0.1076	0.2986117256308733	1.2266311762776598	-0.01275	0.2953606543719528	0.9560283107082561	0.0702	0.3047836525259045	0.7384366254590944	0.1076	0.645572631808943	1.3312435468804205	-0.01275	0.7785261291562775	1.121428561069716	0.0702	0.8969679240126576	0.9462250040274607	0.1076
266	8.89207258834766	0.6141259261666477	0.8070234161796668	0.0301	0.5300124580171398	0.7561592194488536	0.0301	0.6274322455991225	0.37782351585486973	0.129	0.7788837445276333	0.14411700639957775	0.023	0.8030264204673514	-0.015968369149362643	0.2179	0.7492025964443342	-0.006133188430377888	0.1804	0.8202731244685717	0.11682945321371646	-0.0119	0.7146785759297218	0.8193248490566037	0.0301	0.8395314348496229	0.47169997029918787	0.129	0.9502896604114759	0.1355211780515183	0.023	0.9981223472144104	-0.020368902778100547	0.2179	1.0480313441785827	0.017848923447156894	0.1804	0.9378435530944623	0.07968048733197926	-0.0119	0.46185955479146196	1.340547072050949	0.0008	0.4296943446313213	1.5833333822881126	0.0655	0.49610274313388864	1.4072872649300066	0.1076	0.2968645693764655	1.2288083398078344	-0.01275	0.29459691881290173	0.9564943378696914	0.0702	0.3037211566688959	0.7385811482085191	0.1076	0.6437794620858949	1.336539873137159	-0.01275	0.7782939932195432	1.1250805410794733	0.0702	0.8971283206880858	0.9450198370971568	0.1076
267	8.925501432664756	0.612216484210206	0.8080073185426824	0.0301	0.5270216968316956	0.7575513645741543	0.0301	0.6326131738242594	0.3794795474950331	0.129	0.7800495609638847	0.11409365473057809	0.023	0.8037758067356567	-0.037664719892718496	0.2179	0.7488422222573298	-0.032361175227280665	0.1804	0.8231650023638856	0.07916333397957312	-0.0119	0.7131646567600409	0.82123803851613	0.0301	0.8385064780199518	0.4700279617588371	0.129	0.949819363932511	0.13015044069455112	0.023	0.9980502361500317	-0.021111059808434557	0.2179	1.0477068663279812	0.014442035612724226	0.1804	0.938455754080361	0.0713647813247348	-0.0119	0.4594244519968406	1.3453807045350226	0.0008	0.4245384842675091	1.586557370073905	0.0655	0.4931304098324564	1.4110740572642937	0.1076	0.2936283082265493	1.2309518662864813	-0.01275	0.2922188730045914	0.9567074236368333	0.0702	0.3014988748970328	0.73828805146915	0.1076	0.6430842847246498	1.3415945749936362	-0.01275	0.7781200421173695	1.1289140396438384	0.0702	0.8963822969685582	0.9444362250246078	0.1076
